<svg xmlns="http://www.w3.org/2000/svg" viewBox="0 0 2977.76 1648"><defs><style>.cls-1{fill:#ebf3fa;}.cls-2,.cls-3{opacity:0.5;}.cls-3,.cls-7{fill:#afcdfb;}.cls-25,.cls-3,.cls-33,.cls-34,.cls-36{isolation:isolate;}.cls-4{fill:#dfebfd;}.cls-5{fill:#f9ddbf;}.cls-6{fill:#88b9ff;}.cls-8{fill:#ea642f;}.cls-9{fill:#f99746;}.cls-10{fill:#ffebd9;}.cls-11{fill:#97c6ff;}.cls-12{fill:#bbd5f9;}.cls-13{fill:#fc7a4c;}.cls-14{fill:#f7a76b;}.cls-15{fill:#aec3ff;}.cls-16{fill:#ffb27d;}.cls-17{fill:#f3a36c;}.cls-18{fill:#163560;}.cls-19{fill:#e8945b;}.cls-20{fill:#ffe6cf;}.cls-21{fill:#f2c9a5;}.cls-22{fill:#b0d0ff;}.cls-23{fill:#2e3552;}.cls-24{fill:#fff;}.cls-25,.cls-34,.cls-36{font-size:58px;font-family:Rubik-Medium, Rubik;font-weight:500;}.cls-26{fill:#2c3a64;}.cls-27{fill:#ef802e;}.cls-28{fill:#82b378;}.cls-29{fill:#2b478b;}.cls-30{fill:#ffb380;}.cls-31{fill:#8fa2ff;}.cls-32{fill:#ed985f;}.cls-34{letter-spacing:-0.01em;}.cls-35{letter-spacing:-0.03em;}.cls-36{letter-spacing:-0.04em;}</style></defs><g id="Calque_2" data-name="Calque 2"><g id="_лой_1" data-name=" лой 1"><path class="cls-1" d="M172.85,1644.48s-200.39-152.69-60.66-517.66c82.34-215.17,360.25-182.14,346.19-568.6S857-146.49,1450.06,70.5c193.33,70.73,284.25,175.91,432.15,118.78,286.52-110.67,678.32-65,690.7,290,19.64,563.27,311.27,311.92,335.1,722.84,8.12,140-10.09,284.14-159.58,442.39Z"/><g class="cls-2"><path class="cls-3" d="M1375.76,549.77s-25.88-216.78-137-346.15c-14.76-17.19-43-6.25-42.54,16.41v1.15C1197.73,259.85,1322.1,423,1375.76,549.77Z"/><path class="cls-3" d="M1389.26,611.84s-110.73-271-299.73-390.8c-11.53-7.3-27.14-4.65-34.87,6.6-5,7.32-7.3,18.77-1.65,36.64C1068.05,312,1278.91,472.36,1389.26,611.84Z"/></g><path class="cls-4" d="M1121.4,455.48s-7,166.25-37.86,163,21.16-184.7,21.16-184.7S973.19,328.19,913.79,320.32c0,0,55.71,176.87,26.59,166.16s-95.63-192.07-95.63-192.07-145.22-63.32-190.52,21-16.34,138.41,4.84,149.25S825,507.12,816.89,525,704.38,550.21,654,520.72c0,0,25.59,162,106,172.76s116.12-32.29,165.72-24.72,82.16,29,54.75,36.41S872.64,684.68,825.53,709s-83.77,37.53-14.16,69.49,203,53.06,242.26,2.94l4.91-6.27a31,31,0,0,1-4.91,6.27c11.65,11,23.16,53.19,30.51,85.23.86,5.36,2.45,12.87,5,23.16h0c.94,4.6,1.67,8.35,2.17,11,10.79,70.45-28.71,178.59-28.71,178.59l14.64,7.82c60.66-104.15,21.37-210.41,21.37-210.41-22.38-82.22-5.71-145.5-5.71-145.5s158.83-46.07,118-168.12C1210.94,563.18,1173.7,485.4,1121.4,455.48Z"/><path class="cls-3" d="M2377.94,420c-4.47-93.67-159.73-98.9-159.73-98.9s-135.37,132.37-165.68,129.56,93.63-135.79,93.63-135.79c-55.88-18.1-216.78,19.84-216.78,19.84S1898.83,517.2,1870.18,507s35.35-160.23,35.35-160.23c-58.9,4.41-124.66,57.51-124.66,57.51-87.58,90.78,33.5,198.55,33.5,198.55s-12,63-66.44,126.33h0s-11.65,11.34-25.49,31.92l15.06,3.32q3.18-5.65,6.67-10.79a.06.06,0,0,1,0-.06l.1-.15c1.55-2.1,3.76-5.09,6.5-8.71h0c6.59-8,11.16-14,14.19-18.34h0c20-25.24,48-57.71,63-62.52a29.82,29.82,0,0,1-1.7-7.62c.54,2.43,1.1,5,1.7,7.62,13.61,60.93,140.5,98.53,215.57,99.61s48.22-26.06,16.79-67.46-114.38-50.58-135.48-68.74,16.73-23.35,63.8-9.12,60.47,67.38,136.2,91.79,166.69-108.18,166.69-108.18c-57.06,4.81-146.33-45.75-146-65s141.78,13.85,165.09,13.19S2382.41,513.63,2377.94,420Z"/><path class="cls-5" d="M1828.27,462.6l-60.74,143.17L1648,887.57c-1.35-.55-2.68-1.08-4-1.6a306.67,306.67,0,0,0-234.24,4.5l-17.23-33.62h0l-122.32-239-70.88-138.49a770.23,770.23,0,0,1,628.2-17h0Z"/><path class="cls-6" d="M1282.25,994q-1.59,2.25-3.17,4.53a305.57,305.57,0,0,0-53.61,173.19v.15H764A764.64,764.64,0,0,1,882.76,761.28l134.54,78.36Z"/><path class="cls-7" d="M1409.74,890.47c-1.17.51-2.33,1-3.47,1.54l-.66.29A308.1,308.1,0,0,0,1282.25,994l-265-154.33L882.76,761.28a771.69,771.69,0,0,1,316.53-282l70.88,138.49,122.32,239h0Z"/><path class="cls-8" d="M1839.14,1171.84v-.15a305.31,305.31,0,0,0-52-170.83l-2.7-4,264.82-154.25,134.51-78.36a764.67,764.67,0,0,1,116.88,407.55Z"/><path class="cls-9" d="M2183.75,764.29l-134.51,78.36L1784.42,996.9a307.88,307.88,0,0,0-135.62-109c-.26-.12-.53-.22-.79-.33l119.52-281.8,60.73-143.17A771.1,771.1,0,0,1,2183.75,764.29Z"/><path class="cls-10" d="M1648.8,887.9c-.26-.12-.53-.22-.79-.33-1.35-.55-2.68-1.08-4-1.6a306.67,306.67,0,0,0-234.24,4.5c-1.17.51-2.33,1-3.47,1.54L1270.2,617.75a614.3,614.3,0,0,1,497.37-12S1648.8,887.9,1648.8,887.9Z"/><path class="cls-11" d="M1279.08,998.5a305.57,305.57,0,0,0-53.61,173.19H919.61c0-120.41,37.69-237.33,97.69-332Z"/><path class="cls-12" d="M1406.27,892l-.66.29A308.17,308.17,0,0,0,1282.25,994q-1.59,2.25-3.17,4.53L1017.3,839.65c61-94.49,150.82-172.73,252.87-221.89Z"/><path class="cls-13" d="M2141.42,1171.69h-302.8A313.46,313.46,0,0,0,1787.12,999l262-155.91C2107.62,938.31,2141.42,1051,2141.42,1171.69Z"/><path class="cls-14" d="M1787.12,1000.86l-2.7-4a307.88,307.88,0,0,0-135.62-109l118.73-282.09a617.49,617.49,0,0,1,281.7,236.88C2050.11,844,1787.12,1000.86,1787.12,1000.86Z"/><path class="cls-15" d="M1731.41,1171.84h-398.2a199.25,199.25,0,0,1,109.82-178c5.19-2.6,10.51-5,16-7.15a197.19,197.19,0,0,1,39-11A200.39,200.39,0,0,1,1601.16,985c1.63.58,3.24,1.21,4.84,1.85a199.22,199.22,0,0,1,125.48,185Z"/><path class="cls-6" d="M1664.47,1171.84H1400.16A132,132,0,0,1,1530.3,1039.7h2a131.59,131.59,0,0,1,42.1,6.85c1.81.61,3.59,1.26,5.36,1.93a132.24,132.24,0,0,1,84.7,123.38Z"/><path class="cls-16" d="M2360.53,1539.3s5.93,63.69-1.3,67.25l-92.56-.19s0-10.69,14.87-13.06,41-11.08,45.4-30.46S2360.53,1539.3,2360.53,1539.3Z"/><path class="cls-16" d="M2372.45,1375c-3.4,92.76-10.25,180.52-10.25,180.52s-4.38,4.7-18.28,8.62c-10,2.82-17-1.31-17-1.31s-6.46-51.93-8.46-64.22c-2.13-13-89.58-274.1-78.26-370.35,8-67.57,44.74-111.65,44.74-111.65h72.2s.09,49.95,6.21,117c1.74,19,4,39.4,6.8,60.41C2375.6,1234.58,2375,1306.17,2372.45,1375Z"/><path class="cls-17" d="M2372.45,1375c-16-40.39-60.51-153-65.7-172.46a84.66,84.66,0,0,0-21.59-37.74l78.17-31.17c1.74,19,4,39.4,6.8,60.41C2375.6,1234.58,2375,1306.17,2372.45,1375Z"/><path class="cls-18" d="M2343.6,668.59c-19.44-4.85-32,4.09-32,4.09-54.41,6.41-55.14,71.82-49.36,92.89s13.65,43.3-3.41,76.53c-49.28,96,94.57,65.41,94.57,65.41-14-64,67.9-58.94,66.09-51.69C2523,856,2387.8,679.62,2343.6,668.59Z"/><path class="cls-16" d="M2232.13,1097.34s9.23,21.06,9.58,26.88-2.42,15.07-4.35,16-3-11.07-3.86-10.42,2.28,19.67-.91,21.65-15.23-15.91-17-24.31,0-22.18,0-22.18Z"/><path class="cls-16" d="M2325.84,910.47s-13.57,15.13-25.72,40.26a195.06,195.06,0,0,0-13.2,35.64c-8.42,32.34-41.42,95-52.71,115.88-2.39,4.43-3.8,7-3.8,7l-15-2.85s9.29-84.09,15.76-108.05c6.75-25,8.83-102.93,19.22-128.5,13.46-33.11,41.93-37.43,41.93-37.43Z"/><path class="cls-17" d="M2300.12,950.73a195.06,195.06,0,0,0-13.2,35.64c-8.42,32.34-24.06,77.22-52.71,115.88,0,0,4.72-51.84,14.37-67.74s10.85-116.34,10.85-116.34Z"/><path class="cls-16" d="M2499.93,1532.91s16.47,15,13.26,25.72-18.08,17.8-20.09,30.86-10,20.18-17.28,20.18h-34.48s-5.32-9.19,7.53-12,17.71-18.11,16.9-32.35,1.21-33.24,1.21-33.24l27.32-6.33Z"/><path class="cls-16" d="M2398,1014.15s58.14,26.24,71.53,96.39c14.59,76.43-21.08,161.75-13,197.74s37.79,105.25,37.79,217.51c0,0-3.09,6.44-12.62,9.86-3,1.1-11.46,4.08-15.42,5,0,0-3.73-14.26-8.89-25.14-23.29-49.1-90.35-156.88-93.63-184-2.33-19.16-22.52-146-66.58-220.34-10.58-17.86,6.49-88.89,6.49-88.89Z"/><path class="cls-16" d="M2426.45,1082.38c-19-42.72-30.7-55-28.47-68.23,1.65-9.87-5-184-5-184-2.26-.7-6.79-1.33-9.26-1.88-7.82-1.73-13-7.79-17-14.76-5-8.88-10.38-26.54-10.32-43.34l-18.39,1-26.11,8.51s6.53,16.08,6.56,28.24v.31a23.59,23.59,0,0,1-17,22.81c-5.18,1.5-9.69,2.78-9.69,2.78s-15.07,43-17.94,87.19,27.39,63.37-.23,151.66C2245.35,1162.84,2437,1106,2426.45,1082.38Z"/><path class="cls-19" d="M2312.79,783.13s5.62,12.63,5.65,24.79c23-3.41,33.06-21.89,38-33.5Z"/><path class="cls-16" d="M2419.06,907.19s9.15,88.1,16.43,110.6c9.47,29.3,0,44.81,0,44.81l-92.08,22.71-80.88-11.48s-4.26-18.42-2.29-33.44c2-15.34,10.27-27.53,10.44-50.63.32-42.93-22.12-49.38-14.55-85.37,8.2-39,35.55-70.58,35.55-70.58s44,43.06,101.23-3.65Z"/><path class="cls-16" d="M2313.29,801.1s53-11.72,45.23-44.64-6.22-56.61-40.42-50.51-37.77,20.21-37.84,31.83S2299.29,803.3,2313.29,801.1Z"/><path class="cls-18" d="M2293.85,710.88s23.67,35.16,47.23,35.58,31.77-7.83,31.77-7.83-20.25-9.47-29.42-32.24C2343.43,706.39,2300.38,689.9,2293.85,710.88Z"/><path class="cls-18" d="M2298.18,713.16s-9.77,6.57-12.32,15.44a54.76,54.76,0,0,0,.06,31.92s-17.16-23.64-8.45-41.41C2286.71,700.27,2298.18,713.16,2298.18,713.16Z"/><path class="cls-20" d="M2473,1155.75s-45-10.91-93-4.17c-19,2.65-38.49,8.06-55.89,18,0,0-51.83-10.45-84.42-6.11,0,0-10.8-43.13,18.52-104.65,0,0,62.83,4.55,143.67-7,12.25-1.74,24.92-3.86,37.85-6.42C2439.7,1045.41,2481.65,1089.69,2473,1155.75Z"/><path class="cls-20" d="M2428.53,982.64q-13.5,3.55-25.67,6.35c-109.56,25.31-140.08,8.09-140.08,8.09s-8.37-47.08-3.35-77.21,32.9-87.46,32.9-87.46l10.76-1.92s-7.85,33-9.24,44.18c-2.06,16.46,15.09,21,38.19,16.8,36.74-6.6,45.82-65.29,45.82-65.29a39.8,39.8,0,0,1,15.82,2.71c-5.31,32.7.61,62.53,8.71,85.42h0c9.88,27.89,23,45.5,23,45.5Z"/><path class="cls-21" d="M2473,1155.75s-45-10.91-93-4.17c38.88-41.88,21.88-99.75,21.88-99.75,12.25-1.74,24.92-3.86,37.85-6.42C2439.7,1045.41,2481.65,1089.69,2473,1155.75Z"/><path class="cls-19" d="M2317.29,1024.77c0,2.16-1.21,3.9-2.7,3.9s-2.71-1.74-2.71-3.9,1.21-3.91,2.71-3.91S2317.29,1022.61,2317.29,1024.77Z"/><path class="cls-16" d="M2393.68,828.89s24.31,6.45,33.19,21.51,60.42,93.74,67.43,133.08-41.53,134.75-41.53,134.75l-13.07-9s5.76-109.52,0-120.74c-6.74-13.11-14.33-28.65-14.33-28.65s-29.15-66.65-29.87-69.92C2387.53,854.08,2393.68,828.89,2393.68,828.89Z"/><path class="cls-16" d="M2440,1102.25s-8.52,2.44-13.17,5.23-15.39,13.82-12.88,15.77,9.3-5,12.88-5-16.51,18.69-14.83,22.6,24.7,2,32.3-4.47,12-28.88,12-28.88Z"/><path class="cls-21" d="M2428.53,982.64q-13.5,3.55-25.67,6.35c-12.41-23.64,1-70.18-.47-74.64,9.88,27.89,23,45.5,23,45.5Z"/><rect class="cls-22" x="2073.12" y="1606.32" width="582.49" height="21.16"/><rect class="cls-23" x="2095.22" y="1627.48" width="18.41" height="13.47"/><rect class="cls-23" x="2595.72" y="1627.48" width="18.41" height="13.47"/><path class="cls-23" d="M2216.67,1289.11h-162.5a8.86,8.86,0,0,1-8.15-5.4l-14.81-34.87a5.87,5.87,0,0,1,3.1-7.69,6.05,6.05,0,0,1,2.3-.46h165.64l18.16,42.77a4.07,4.07,0,0,1-3.74,5.65Z"/><path class="cls-22" d="M2218.1,1289.11H2064a12,12,0,0,1-11-7.29l-15.37-36.19a3.56,3.56,0,0,1,1.9-4.66,3.39,3.39,0,0,1,1.37-.28h161.44a11.64,11.64,0,0,1,10.7,7.08l12.66,29.82a8.28,8.28,0,0,1-4.41,10.86A8.15,8.15,0,0,1,2218.1,1289.11Z"/><polygon class="cls-24" points="2213.44 1273.68 2060.69 1273.68 2048.97 1246.06 2201.72 1246.06 2213.44 1273.68"/><rect class="cls-22" x="2123.33" y="1280.67" width="15.06" height="329"/><text class="cls-25" transform="translate(938.15 1066.13)">MAIGREUR</text><path class="cls-26" d="M757.46,821.55s-21.18-36.66-67-11.65c-32.46,17.7-25.62,47.46-34.27,58.7s-57,16.2-43.07,74.56c8.46,35.57,120.26,85.69,113.65,115.74,0,0,55.38-67.35,11.24-97.86-20-13.83-31.46-40.49-30-46.17S757.46,821.55,757.46,821.55Z"/><path class="cls-16" d="M717.09,997.77s30.64,126.75,60.71,152.08c9.51,8,28.21,24.13,43.78,34.82,14,9.62,18.68,11.1,18.68,11.1l-13,12.37s-2.63-5-11.1-8.19c-22.44-8.35-68-22.36-80.14-36.61-16.69-19.62-62.39-117.95-62.39-117.95Z"/><path class="cls-27" d="M1066.44,1506.17s-11.78,26-54.78,46.37h0c-18.07,8.53-41.64,16.09-72.18,20.27-94.09,44.84-142.76,14-142.76,14-125.24-50.34-177-219.17-86.1-288,26.57-20.14,53.31-26.17,76.71-25.66a194.52,194.52,0,0,0,114.83-34.32c19.28-13.27,44.94-22.91,78.21-20.65a111.17,111.17,0,0,1,42.66,11.56l1.51.76C1105.53,1272.54,1132.63,1411,1066.44,1506.17Z"/><path class="cls-9" d="M1066.44,1506.17s-11.78,26-54.78,46.37h0c-50.8,19.94-34.17-7.65-90.73,9.26s-95.72,8.34-156.75-67.73-57-166.27-4.11-192.36,94.17,9.52,151-57.27c39.25-46.15,112-14.76,112-14.76l1.51.76C1105.53,1272.54,1132.63,1411,1066.44,1506.17Z"/><path class="cls-28" d="M924.25,1126.76a353.58,353.58,0,0,1,55.9,54.7s-59.85,15.61-82.4.33c-26.6-18-36.36-16.94-61.6-17.6C836.15,1164.19,889.89,1099.84,924.25,1126.76Z"/><path class="cls-29" d="M850.53,1281h0c-22-25.3-25.68-63.74-24.91-91.53.62-22.11,5.22-53.09,7.61-67.88a3.51,3.51,0,0,1,6.36-1.44l4.8,6.87a28.74,28.74,0,0,1,4.28,23.65c-6.48,25-17.4,82.13,6.35,119.39C857.69,1274.26,854.45,1285.55,850.53,1281Z"/><path class="cls-30" d="M972,1246.4s44.34.08,54.58,30.53-20.09,36.4-39.81,25.19S947.66,1252.51,972,1246.4Z"/><path class="cls-15" d="M429.16,1220.44c.27.48.55,1,.84,1.49,6.7,11.65,22.08,40.2,39,71.45,8,14.82,16.4,30.25,24.36,44.77,13.72,25.06,26.19,47.38,33.47,59.17,7.4,12,12.85,20.42,15.06,23.79h0a5.52,5.52,0,0,1,.72,3.47,181.28,181.28,0,0,0,.48,31.43c10.22,101.65,78.77,156.12,78.77,156.12l20.38,3s-28.84-106.86-37.34-167.26c-1.43-10.24-2.06-18.54-1.56-24,1.51-15.74-1.29-38.84-6.58-65.37-9.41-47.15-26.67-105-41.67-151.33-1-3-29.62-106.63-29.62-106.63-24.05,21-111.79,29.7-111.79,29.7S398.83,1166.5,429.16,1220.44Z"/><path class="cls-29" d="M685,1641H600s-2-13,2.41-22.8c4.25-9.43,10.32-9.73.77-24.53,5.41,5.57,22.78,7.87,35.08,6.22,1.5,2.44,9.71,18.83,14.74,22.44C658.53,1626.28,683.33,1624.85,685,1641Z"/><path class="cls-31" d="M429.16,1220.44c.27.48.55,1,.84,1.49,6.7,11.65,43,78.62,59.9,109.86-19.63-80.75-6-161.51-6-161.51Z"/><path class="cls-26" d="M745.86,816.39c.56-2.23-48.58,22.21-51.07,25-23,25.57-16.48,58.93-3.29,59.25,8.46.2,6.82,14.26,6.82,14.26L792.53,875S781.19,808.87,745.86,816.39Z"/><path class="cls-5" d="M714.2,978.74s14.34,28.64,12.55,51.88c0,0-17.29,27.29-62.13,34.2C664.62,1064.82,703.17,978.72,714.2,978.74Z"/><path class="cls-15" d="M495.47,1136.66l.29-15.9c-31.7,4-109.29-37.88-109.29-37.88s-33.17,22-37.7,85c-2.24,30.78-16.24,160.8-17.79,199.62-.56,14.07-.75,24.12-.82,28.13h0a5.49,5.49,0,0,1-1.35,3.27,180.54,180.54,0,0,0-17.17,26.33c-48.37,90-23.08,212.27-23.08,212.27l11.23-2.86s40.9-126.76,67.63-181.59c4.54-9.3,8.66-16.53,12.1-20.72,10.06-12.21,20.65-32.94,31.1-57.88C430.37,1327.32,495.47,1136.66,495.47,1136.66Z"/><path class="cls-29" d="M356.21,1641H271.15s-2-13,2.41-22.8c4.26-9.43,10.92-13.72,9.33-25.14,5.4,5.56,14.21,11.8,26.51,10.14,1.51,2.44,9.72,15.52,14.76,19.13C329.72,1626.28,354.53,1624.85,356.21,1641Z"/><path class="cls-5" d="M658.88,1083.09c-11.43,2,1.87,11-13.85,12.74-22.36,2.44-45.46,4.11-57.55,8.93-4.42,1.76-7.37,3.94-8.29,6.71-5.24,15.77-38.45,42.87-38.45,42.87-148.12-6.75-157.66-72.76-157.66-72.76C479.21,988.22,561,937.33,628.58,931c16.45-1.53,38.62.53,49,5.16,23.64,10.52,36.59,42.55,36.59,42.55S702.29,1075.68,658.88,1083.09Z"/><path class="cls-21" d="M645,1095.83c-22.36,2.44-45.46,4.11-57.55,8.93-5-73.87,29.91-129.43,29.91-129.43S640.13,1067.87,645,1095.83Z"/><path class="cls-16" d="M664.33,962.83s-56.25-3.08-66.24,32.24,18.75,176.26,24.94,190.81c11.28,26.49,64.76,105.55,64.76,105.55l19.43-5.9s-34.42-119.2-42.6-130.63C651.79,1137,681.16,978.19,664.33,962.83Z"/><path class="cls-16" d="M699.29,1262.13s6.45,19,8.74,25.83c1.21,3.6,4.89,5.84,6.2,7.43,3.78,4.62,14.79,15.81,15,22.36,0,0-.55,2.9-2.91,2.37-1.94-.43-7.79-6-12.16-7.62a2.33,2.33,0,0,0-3,1.32,2.85,2.85,0,0,0-.11.39c-.6,3-1.33,8.47.27,13.33,1.34,4.1,4.47,23.51,1,23.61-11.48.34-17.92-16.66-21.66-25.91-2.12-5.23-2.15-16.67-1.65-26.82s-13.11-29.19-13.11-29.19Z"/><path class="cls-5" d="M587,1042.29c.14.83,53.22,9.76,86.42-7.09,0,0,27.74-86.88-11.9-82.73s-63.1,16.64-64.1,35.62S587,1042.29,587,1042.29Z"/><path class="cls-16" d="M676.34,942.28c4.23,13.24,18.32,51,37.86,36.46-.66-2.81,3.44-11,8.28-19.32,6.19-10.63,13.55-21.5,13.55-21.5L704.2,910l-1.9-1.66c-8.33,14.53-16.51,21.53-23.68,26.88A6.37,6.37,0,0,0,676.34,942.28Z"/><path class="cls-32" d="M736,938s-7.36,10.83-13.55,21.48c-19.78-12.2-19.8-36.7-18.28-49.39Z"/><path class="cls-16" d="M736.91,951.91s-48-26.73-30.93-56.4,22.43-53.09,53.83-37.27,30.77,30.54,27.47,41.83S749.85,958.1,736.91,951.91Z"/><path class="cls-26" d="M795.4,882.77c-2.2-13.17-8.89-14.43-13.56-13.55-17.74-29.34-46.73-17.89-46.73-17.89-15.48,19.43-37.87,22.74-37.87,22.74s5.58,10.38,28.55,16.8c7,2,15,.77,22.66-1.81a128.58,128.58,0,0,1-32.6,12.29c30.27,2.77,59.07-24.91,62.06-27.87,1.39,4.29,3.84,13.27,2.38,19.83-2,8.92-1.63,16.72-5.08,27.17C775.21,920.48,798.7,902.52,795.4,882.77Z"/><path class="cls-16" d="M841.88,1188.52s-.78-.45-2.65,2.81c-1.53,2.66-2.34,2.44-6.62,5-8,4.83-2.66,10.64,4.74,13.55,5.29,2.09,8.54-1.27,9.08-3.37C847.37,1202.86,848.53,1195.07,841.88,1188.52Z"/><path class="cls-16" d="M817.35,1192.42s7,5.24,13.33-4.11c1.34-2,6.81-3.31,7.67-3.94,2.82-2.07,3.77-3.56,3.24-4.68a1.18,1.18,0,0,0-1.52-.52,40.45,40.45,0,0,1-14.26,2.25c-1.43,0-5.45,2.12-6,2.64C818.08,1185.72,814.74,1191.36,817.35,1192.42Z"/><path class="cls-7" d="M1330.74,1246.4h81l89.79,144.44,89.79-144.44h81V1588h-74.66V1365l-96.13,145.9h-2l-95.15-144.44V1588h-73.69Z"/><path class="cls-7" d="M1193.21,1246.4h75.15V1588h-75.15Z"/><rect class="cls-23" y="1640.95" width="2977.76" height="7.05" rx="3.19"/><text class="cls-25" transform="translate(1376.31 701.45)">SURPOIDS</text><text class="cls-25" transform="translate(1731.41 835.86)">OBESITE</text><g class="cls-33"><text class="cls-25" transform="translate(1860.62 1049.24)">OBESITE</text><text class="cls-25" transform="translate(1869.96 1118.84)">S</text><text class="cls-34" transform="translate(1907.19 1118.84)">E</text><text class="cls-25" transform="translate(1942.92 1118.84)">VERE</text></g><g class="cls-33"><text class="cls-25" transform="translate(1087.26 850.43)">NORM<tspan class="cls-35" x="167.39" y="0">A</tspan></text><text class="cls-36" transform="translate(1294.84 850.43)">L</text></g><path class="cls-7" d="M1719.42,1417.19c0-99,74.1-180,179.55-180,64.16,0,103,22.38,136.28,54.21l-39.3,45.26c-27.86-25.86-57.69-43.26-97.49-43.26-66.63,0-114.89,54.7-114.89,123.83,0,68.14,48.26,123.85,114.89,123.85,42.78,0,70.13-17.42,100-45.28l39.3,39.79c-36.31,37.8-76.1,61.68-141.26,61.68C1795,1597.23,1719.42,1518.15,1719.42,1417.19Z"/></g></g></svg>